# xmcd
#
# Track frame offsets:
#	150
#	17314
#	43073
#	60220
#
# Disc length: 1029 seconds
# Revision: 0
# Processed by: cddbd v1.5.2PL0 Copyright (c) Steve Scherf et al.
# Submitted via: dBpowerAMP V12.0
#
DISCID=21040304
DTITLE=Oliver Frank - Da ist noch Platz in meinem Herzen
DYEAR=1995
DGENRE=Discofox
TTITLE0=Da ist noch Platz in meinem Herzen
TTITLE1=Da ist noch Platz in meinem Herzen (Maxi Version)
TTITLE2=Da ist noch Platz in meinem Herzen (Playback)
TTITLE3=Nochmal mit dir (Radio Single Version)
EXTD=
EXTT0=
EXTT1=
EXTT2=
EXTT3=
PLAYORDER=
